REM DISCID 9F0FA61F
REM COMMENT "ExactAudioCopy v1.3"
PERFORMER "RADWIMPS"
TITLE "天気の子"
REM COMPOSER ""
FILE "UPCH-20520.flac" WAVE
  TRACK 01 AUDIO
    TITLE "『天気の子』のテーマ"
    PERFORMER "RADWIMPS"
    REM COMPOSER ""
    INDEX 01 00:00:00
  TRACK 02 AUDIO
    TITLE "優しさの味"
    PERFORMER "RADWIMPS"
    REM COMPOSER ""
    INDEX 01 00:41:55
  TRACK 03 AUDIO
    TITLE "K&A 初訪問"
    PERFORMER "RADWIMPS"
    REM COMPOSER ""
    INDEX 01 01:30:45
  TRACK 04 AUDIO
    TITLE "占秘館へようこそ"
    PERFORMER "RADWIMPS"
    REM COMPOSER ""
    INDEX 01 03:20:14
  TRACK 05 AUDIO
    TITLE "K&A 入社式"
    PERFORMER "RADWIMPS"
    REM COMPOSER ""
    INDEX 01 04:13:70
  TRACK 06 AUDIO
    TITLE "風たちの声(Movie edit)"
    PERFORMER "RADWIMPS"
    REM COMPOSER ""
    INDEX 01 05:17:31
  TRACK 07 AUDIO
    TITLE "陽菜、救出"
    PERFORMER "RADWIMPS"
    REM COMPOSER ""
    INDEX 01 07:54:37
  TRACK 08 AUDIO
    TITLE "晴れゆく空"
    PERFORMER "RADWIMPS"
    REM COMPOSER ""
    INDEX 01 09:42:24
  TRACK 09 AUDIO
    TITLE "空の海"
    PERFORMER "RADWIMPS"
    REM COMPOSER ""
    INDEX 01 11:55:67
  TRACK 10 AUDIO
    TITLE "御宅訪問"
    PERFORMER "RADWIMPS"
    REM COMPOSER ""
    INDEX 01 12:55:42
  TRACK 11 AUDIO
    TITLE "初の晴れ女バイト"
    PERFORMER "RADWIMPS"
    REM COMPOSER ""
    INDEX 01 16:38:21
  TRACK 12 AUDIO
    TITLE "祝祭(Movie edit)feat.三浦透子"
    PERFORMER "RADWIMPS"
    REM COMPOSER ""
    INDEX 01 17:58:05
  TRACK 13 AUDIO
    TITLE "花火大会"
    PERFORMER "RADWIMPS"
    REM COMPOSER ""
    INDEX 01 20:34:17
  TRACK 14 AUDIO
    TITLE "気象神社"
    PERFORMER "RADWIMPS"
    REM COMPOSER ""
    INDEX 01 23:39:14
  TRACK 15 AUDIO
    TITLE "芝公園"
    PERFORMER "RADWIMPS"
    REM COMPOSER ""
    INDEX 01 26:19:74
  TRACK 16 AUDIO
    TITLE "二つの告白"
    PERFORMER "RADWIMPS"
    REM COMPOSER ""
    INDEX 01 29:31:73
  TRACK 17 AUDIO
    TITLE "首都危機"
    PERFORMER "RADWIMPS"
    REM COMPOSER ""
    INDEX 01 31:08:48
  TRACK 18 AUDIO
    TITLE "真夏の雪"
    PERFORMER "RADWIMPS"
    REM COMPOSER ""
    INDEX 01 32:45:51
  TRACK 19 AUDIO
    TITLE "天気の力"
    PERFORMER "RADWIMPS"
    REM COMPOSER ""
    INDEX 01 34:04:44
  TRACK 20 AUDIO
    TITLE "家族の時間"
    PERFORMER "RADWIMPS"
    REM COMPOSER ""
    INDEX 01 35:27:20
  TRACK 21 AUDIO
    TITLE "消えゆく陽菜"
    PERFORMER "RADWIMPS"
    REM COMPOSER ""
    INDEX 01 38:00:45
  TRACK 22 AUDIO
    TITLE "永遠の雲の上"
    PERFORMER "RADWIMPS"
    REM COMPOSER ""
    INDEX 01 39:08:49
  TRACK 23 AUDIO
    TITLE "晴天と喪失"
    PERFORMER "RADWIMPS"
    REM COMPOSER ""
    INDEX 01 40:00:51
  TRACK 24 AUDIO
    TITLE "帆高、逃走～子供達の画策"
    PERFORMER "RADWIMPS"
    REM COMPOSER ""
    INDEX 01 42:45:73
  TRACK 25 AUDIO
    TITLE "バイクチェイス"
    PERFORMER "RADWIMPS"
    REM COMPOSER ""
    INDEX 01 45:47:43
  TRACK 26 AUDIO
    TITLE "陽菜と、走る帆高"
    PERFORMER "RADWIMPS"
    REM COMPOSER ""
    INDEX 01 46:46:56
  TRACK 27 AUDIO
    TITLE "愛にできることはまだあるかい(Movie edit)"
    PERFORMER "RADWIMPS"
    REM COMPOSER ""
    INDEX 01 49:10:48
  TRACK 28 AUDIO
    TITLE "グランドエスケープ(Movie edit)feat.三浦透子"
    PERFORMER "RADWIMPS"
    REM COMPOSER ""
    INDEX 01 51:41:22
  TRACK 29 AUDIO
    TITLE "ふたたびの、雨"
    PERFORMER "RADWIMPS"
    REM COMPOSER ""
    INDEX 01 54:49:27
  TRACK 30 AUDIO
    TITLE "大丈夫(Movie edit)"
    PERFORMER "RADWIMPS"
    REM COMPOSER ""
    INDEX 01 55:33:71
  TRACK 31 AUDIO
    TITLE "愛にできることはまだあるかい"
    PERFORMER "RADWIMPS"
    REM COMPOSER ""
    INDEX 01 59:52:24
